<?xml version="1.0" standalone="no"?>
<!DOCTYPE svg PUBLIC "-//W3C//DTD SVG 20010904//EN"
 "http://www.w3.org/TR/2001/REC-SVG-20010904/DTD/svg10.dtd">
<svg version="1.0" xmlns="http://www.w3.org/2000/svg"
 width="91.000000pt" height="91.000000pt" viewBox="0 0 91.000000 91.000000"
 preserveAspectRatio="xMidYMid meet">

<g transform="translate(0.000000,91.000000) scale(0.100000,-0.100000)"
fill="#000000" stroke="none">
<path d="M473 891 c-23 -11 -49 -31 -58 -45 -15 -22 -25 -26 -67 -26 -44 0
-54 -4 -84 -34 -19 -19 -34 -43 -34 -55 0 -12 -4 -21 -9 -21 -5 0 -23 -12 -40
-26 -39 -32 -49 -80 -26 -127 24 -51 65 -67 174 -67 l91 0 0 -54 c0 -35 -5
-58 -15 -66 -30 -25 -8 -90 31 -90 19 0 54 36 54 55 0 8 -9 23 -20 32 -16 14
-20 30 -20 85 l0 68 -102 0 c-114 0 -146 10 -166 53 -19 39 -4 78 36 97 23 11
35 25 42 53 15 52 48 71 108 63 46 -6 48 -5 61 25 20 46 90 75 142 60 46 -14
84 -57 93 -107 5 -22 19 -46 36 -60 37 -31 45 -72 26 -118 -20 -49 -63 -66
-162 -66 -56 0 -75 -3 -71 -12 3 -9 31 -13 95 -13 76 0 95 3 119 21 69 50 79
144 22 205 -16 17 -32 43 -35 58 -12 48 -44 89 -88 110 -52 26 -79 26 -133 2z
m-20 -548 c9 -9 -13 -34 -24 -27 -14 8 -11 34 4 34 8 0 17 -3 20 -7z"/>
<path d="M25 746 l-25 -25 0 -276 c0 -272 4 -307 34 -327 6 -4 80 -8 165 -8
l153 0 -6 -22 c-3 -13 -6 -31 -6 -40 0 -13 -8 -18 -31 -18 -20 0 -29 -4 -27
-12 4 -10 47 -13 173 -13 126 0 169 3 173 13 2 8 -7 12 -27 12 -23 0 -31 5
-31 18 0 9 -3 27 -6 40 l-6 22 153 0 c85 0 159 4 165 8 30 20 34 55 34 327 l0
276 -25 24 c-19 20 -34 25 -75 25 -38 0 -50 -4 -50 -15 0 -11 12 -15 44 -15
76 0 76 1 76 -266 l0 -234 -423 2 -422 3 -3 232 c-3 272 -6 263 95 263 47 0
64 3 61 13 -3 7 -29 13 -71 15 -60 3 -70 0 -92 -22z m855 -559 c0 -47 0 -47
-425 -47 -425 0 -425 0 -425 47 l0 23 425 0 425 0 0 -23z m-350 -86 c0 -5 3
-23 6 -40 l7 -31 -87 0 c-47 0 -86 4 -86 9 0 5 3 23 6 40 l7 31 73 0 c41 0 74
-4 74 -9z"/>
<path d="M320 427 c0 -13 -5 -28 -12 -35 -19 -19 -62 -14 -81 8 -9 11 -24 20
-32 20 -19 0 -55 -35 -55 -54 0 -39 65 -61 90 -31 7 8 28 15 46 15 21 0 42 8
54 20 24 24 27 80 5 80 -9 0 -15 -9 -15 -23z m-110 -63 c0 -14 -21 -19 -33 -7
-9 9 13 34 24 27 5 -3 9 -12 9 -20z"/>
<path d="M530 416 c0 -44 22 -66 66 -66 20 0 42 -7 51 -16 19 -19 62 -15 76 7
14 23 0 67 -24 74 -14 5 -31 0 -51 -15 -17 -13 -40 -20 -56 -18 -22 2 -28 9
-30 36 -5 45 -32 44 -32 -2z m170 -52 c0 -14 -21 -19 -33 -7 -9 9 13 34 24 27
5 -3 9 -12 9 -20z"/>
</g>
</svg>
